<?xml version="1.0" encoding="utf-8"?>
<!-- Generator: Adobe Illustrator 16.0.0, SVG Export Plug-In . SVG Version: 6.00 Build 0)  -->
<!DOCTYPE svg PUBLIC "-//W3C//DTD SVG 1.1//EN" "http://www.w3.org/Graphics/SVG/1.1/DTD/svg11.dtd">
<svg version="1.1" id="Layer_1" xmlns="http://www.w3.org/2000/svg" xmlns:xlink="http://www.w3.org/1999/xlink" x="0px" y="0px"
	 width="661.3px" height="205.172px" viewBox="0 0 661.3 205.172" enable-background="new 0 0 661.3 205.172" xml:space="preserve">
<path fill="#F9BB2B" d="M530.894,60.205c-65.777,41.692-165.361-1.829-238.697,22.647c-13.766,9.052-27.184,21.027-40.153,36.774
	c105.885-69.189,284.352,49.018,359.665-93.688C585.901,47.036,558.735,56.536,530.894,60.205z"/>
<path fill="#6EBE44" d="M489.563,43.082c-50.891,25.643-122.855-1.774-178.95,11.992c-15.102,8.077-29.76,19.882-43.8,36.928
	c89.324-58.37,239.882,41.352,303.41-79.03C544.612,33.911,517.411,41.308,489.563,43.082z"/>
<path fill="#1B9AD6" d="M281.587,64.377C354.353,16.832,476.995,98.063,528.743,0C451.167,63.424,355.716-25.631,281.587,64.377"/>
<path fill="#393A3D" d="M0,191.05c0.644-9.204,1.232-21.086,1.76-35.646c0.526-14.555,0.792-25.856,0.792-33.905
	c7.537,0.033,14.623,0.049,21.243,0.049l18.596-0.049c-0.134,1.358-0.2,2.563-0.2,3.619l-4.077-0.34
	c-1.057-0.114-2.891-0.181-5.503-0.197c-2.617-0.016-5.183-0.027-7.693-0.027c-8.052,0-14.166,0.017-18.343,0.055l-1.032,29.246
	c5.133,0.099,9.837,0.152,14.119,0.152c5.098,0,11.381-0.054,18.858-0.152c-0.134,1.019-0.225,2.141-0.257,3.361l-19.222-0.152
	c-2.242,0-6.798,0.049-13.665,0.152l-1.023,30.626l14.614,0.049c5.739,0,9.717-0.027,11.943-0.076
	c2.223-0.049,5.251-0.176,9.092-0.378c-0.173,1.353-0.258,2.563-0.258,3.613c-8.15-0.032-14.113-0.049-17.886-0.049L0,191.05z"/>
<path fill="#393A3D" d="M54.266,205.172l0.917-18.043l0.914-30.569h-6.469c0.137-0.914,0.221-1.862,0.254-2.848h6.286
	c0.178-4.928,0.317-7.813,0.421-8.668c0.203-1.796,0.512-3.22,0.917-4.255c0.411-1.034,0.933-1.921,1.583-2.672
	c0.646-0.75,1.505-1.434,2.573-2.064c1.073-0.629,2.322-1.117,3.751-1.456s3.072-0.509,4.944-0.509c1.089,0,2.201,0.07,3.343,0.208
	c1.136,0.131,2.691,0.404,4.663,0.815c0.071,1.019,0.225,2.19,0.462,3.516c-3.195-1.122-6.097-1.681-8.714-1.681
	c-1.462,0-2.776,0.196-3.948,0.585c-1.174,0.389-2.116,0.86-2.826,1.402c-0.717,0.542-1.319,1.243-1.812,2.092
	c-0.493,0.843-0.86,1.779-1.095,2.797c-0.238,1.02-0.411,2.53-0.509,4.534c0,0.411-0.05,2.191-0.134,5.355h15.165
	c-0.137,0.877-0.224,1.834-0.257,2.848h-15.03l-1.167,48.612c-0.884-0.032-1.599-0.049-2.144-0.049
	C55.846,205.123,55.148,205.14,54.266,205.172z"/>
<path fill="#393A3D" d="M80.401,205.172l0.92-18.043l0.914-30.569h-6.467c0.134-0.914,0.219-1.862,0.255-2.848h6.286
	c0.173-4.928,0.315-7.813,0.419-8.668c0.205-1.796,0.509-3.22,0.914-4.255c0.411-1.034,0.939-1.921,1.585-2.672
	c0.643-0.75,1.502-1.434,2.576-2.064c1.068-0.629,2.316-1.117,3.748-1.456c1.426-0.339,3.08-0.509,4.947-0.509
	c1.087,0,2.201,0.07,3.34,0.208c1.139,0.131,2.694,0.404,4.665,0.815c0.071,1.019,0.224,2.19,0.46,3.516
	c-3.192-1.122-6.095-1.681-8.712-1.681c-1.462,0-2.776,0.196-3.953,0.585c-1.169,0.389-2.114,0.86-2.826,1.402
	c-0.711,0.542-1.317,1.243-1.81,2.092c-0.493,0.843-0.857,1.779-1.093,2.797c-0.241,1.02-0.411,2.53-0.512,4.534
	c0,0.411-0.044,2.191-0.134,5.355h15.168c-0.134,0.877-0.222,1.834-0.255,2.848H85.806l-1.169,48.612
	c-0.882-0.032-1.596-0.049-2.141-0.049C81.987,205.123,81.289,205.14,80.401,205.172z"/>
<path fill="#393A3D" d="M129.37,138.517c3.159,0,6.215,0.444,9.174,1.325c2.954,0.882,5.561,2.388,7.822,4.507
	c2.256,2.124,3.981,4.901,5.172,8.334c1.188,3.428,1.782,7.063,1.782,10.901c0,4.146-0.629,8.121-1.883,11.927
	c-1.26,3.805-3.042,6.986-5.353,9.555c-2.308,2.563-5.019,4.369-8.128,5.427c-3.104,1.051-6.412,1.582-9.911,1.582
	c-2.442,0-4.849-0.284-7.206-0.849c-2.363-0.559-4.572-1.5-6.626-2.825c-2.056-1.325-3.855-3.039-5.401-5.147
	c-1.547-2.108-2.719-4.599-3.516-7.49c-0.802-2.881-1.196-5.892-1.196-9.019c0-5.47,1.015-10.47,3.055-15.003
	c2.04-4.54,5.087-7.875,9.147-10.016C120.36,139.585,124.719,138.517,129.37,138.517z M129.271,141.37
	c-4.043,0-7.797,0.985-11.263,2.951c-3.466,1.972-6.012,4.972-7.644,9.013c-1.626,4.036-2.442,8.466-2.442,13.279
	c0,3.394,0.466,6.586,1.402,9.571c0.931,2.989,2.437,5.508,4.506,7.562c2.07,2.047,4.304,3.477,6.7,4.271
	c2.395,0.8,4.917,1.199,7.567,1.199c3.025,0,5.861-0.487,8.512-1.478c2.647-0.98,4.983-2.629,7.003-4.935
	c2.023-2.31,3.508-5.142,4.463-8.504c0.947-3.355,1.423-6.92,1.423-10.688c0-3.493-0.465-6.778-1.402-9.85
	c-0.934-3.066-2.387-5.53-4.356-7.382c-1.971-1.845-4.213-3.143-6.727-3.888C134.5,141.743,131.922,141.37,129.271,141.37z"/>
<path fill="#393A3D" d="M164.173,191.05c0.408-7.167,0.796-15.589,1.171-25.274c0.373-9.677,0.559-16.882,0.559-21.602l-0.049-4.589
	c0.679,0.039,1.309,0.055,1.883,0.055c0.614,0,1.24-0.016,1.889-0.055l-0.457,9.632c1.152-2.311,2.226-4.058,3.211-5.246
	c0.983-1.188,2.127-2.189,3.433-2.983c1.309-0.8,2.836-1.408,4.588-1.835c1.747-0.422,3.576-0.636,5.476-0.636
	c1.393,0,2.803,0.17,4.232,0.51c0,1.155,0.066,2.311,0.198,3.466c-2.272-0.58-4.247-0.87-5.908-0.87
	c-1.632,0-3.105,0.225-4.413,0.663c-1.309,0.442-2.536,1.089-3.672,1.938c-1.136,0.849-2.25,2.015-3.34,3.488
	c-1.087,1.473-1.902,3.055-2.444,4.715c-0.679,1.938-1.139,4.298-1.377,7.085c-0.359,4.342-0.589,9.309-0.688,14.878
	c-0.131,7.507-0.194,13.064-0.194,16.661c-0.89-0.032-1.568-0.049-2.047-0.049C165.745,191.001,165.061,191.018,164.173,191.05z"/>
<path fill="#393A3D" d="M218.031,187.842c-0.273,1.019-0.476,2.086-0.613,3.208c-2.754,0.68-5.279,1.024-7.589,1.024
	c-1.938,0-3.663-0.219-5.172-0.646c-1.514-0.422-2.746-1.184-3.693-2.289c-0.953-1.101-1.583-2.328-1.889-3.669
	c-0.302-1.342-0.46-2.776-0.46-4.304c0-0.274,0.011-0.695,0.03-1.276c0.014-0.575,0.074-1.851,0.178-3.821l1.703-33.735h-6.292
	c0.137-0.915,0.225-1.829,0.257-2.749h6.221c0.175-2.141,0.317-5.333,0.421-9.576c1.287-0.171,2.398-0.396,3.346-0.663
	c-0.241,5.503-0.359,8.915-0.359,10.239h15.285c-0.134,0.92-0.219,1.834-0.252,2.749h-15.208l-1.669,34.924l-0.05,2.08
	c0,2.853,0.332,4.923,0.994,6.215c0.663,1.286,1.596,2.218,2.804,2.798c1.21,0.58,2.458,0.865,3.75,0.865
	c0.917,0,1.895-0.076,2.932-0.22C213.738,188.844,215.519,188.466,218.031,187.842z"/>
<path fill="#393A3D" d="M226.081,191.05c1.563-28.33,2.478-51.515,2.749-69.551c0.881,0.033,1.582,0.049,2.092,0.049
	c0.509,0,1.205-0.016,2.092-0.049l-1.287,24.815l-1.462,44.735c-0.885-0.032-1.58-0.049-2.089-0.049
	C227.664,191.001,226.965,191.018,226.081,191.05z"/>
<path fill="#393A3D" d="M284.07,186.007c-0.273,1.276-0.479,2.568-0.613,3.872c-2.817,0.815-5.35,1.38-7.592,1.708
	c-2.239,0.322-4.533,0.487-6.877,0.487c-4.08,0-7.688-0.553-10.831-1.659c-3.14-1.101-5.832-2.935-8.077-5.498
	c-2.242-2.562-3.838-5.437-4.788-8.629c-0.956-3.187-1.427-6.582-1.427-10.179c0-4.721,0.816-9.139,2.445-13.263
	c1.629-4.123,4.315-7.545,8.052-10.256c3.734-2.715,8.372-4.074,13.914-4.074c3.8,0,7.247,0.707,10.343,2.113
	c3.088,1.408,5.492,3.713,7.206,6.905c1.714,3.192,2.574,6.981,2.574,11.362c0,0.816-0.033,1.599-0.102,2.344l-40.358,0.049
	c-0.167,2.207-0.251,3.866-0.251,4.988c0,3.22,0.476,6.341,1.429,9.357c0.953,3.019,2.39,5.542,4.314,7.579
	c1.919,2.036,4.222,3.543,6.911,4.528c2.686,0.985,5.528,1.473,8.52,1.473C273.423,189.216,278.488,188.148,284.07,186.007z
	 M248.399,158.492l36.281,0.049c-0.033-2.343-0.172-4.145-0.408-5.398c-0.238-1.259-0.682-2.552-1.328-3.877
	c-0.646-1.325-1.417-2.47-2.321-3.438c-0.901-0.97-1.955-1.78-3.165-2.442c-1.205-0.668-2.557-1.166-4.058-1.511
	c-1.495-0.334-3.061-0.504-4.692-0.504c-1.802,0-3.573,0.202-5.306,0.613c-1.736,0.405-3.318,0.964-4.747,1.681
	c-1.429,0.712-2.765,1.621-4.005,2.728c-1.24,1.1-2.259,2.3-3.058,3.591c-0.802,1.293-1.413,2.52-1.84,3.691
	S248.875,156.45,248.399,158.492z"/>
<path fill="#393A3D" d="M294.77,190.031c-0.069-1.631-0.206-3.071-0.408-4.331c2.683,1.194,5.213,2.021,7.592,2.497
	c2.379,0.477,4.553,0.718,6.524,0.718c2.612,0,4.846-0.378,6.697-1.123c1.856-0.744,3.255-1.851,4.205-3.307
	c0.953-1.462,1.427-2.99,1.427-4.584c0-0.717-0.08-1.401-0.23-2.063c-0.15-0.663-0.397-1.319-0.736-1.988
	c-0.343-0.662-0.723-1.271-1.147-1.829s-1.021-1.193-1.785-1.91c-0.764-0.712-1.657-1.511-2.675-2.388
	c-1.019-0.887-2.617-2.229-4.786-4.024c-2.179-1.801-3.97-3.351-5.377-4.659c-1.413-1.304-2.585-2.629-3.519-3.971
	c-0.934-1.341-1.599-2.568-1.988-3.69c-0.389-1.122-0.588-2.25-0.588-3.406c0-1.977,0.625-3.882,1.862-5.727
	c1.24-1.856,3.022-3.27,5.353-4.255c2.324-0.98,5.273-1.474,8.84-1.474c2.99,0,6.352,0.39,10.086,1.173
	c0.033,1.495,0.137,2.935,0.309,4.331c-2.176-0.92-4.121-1.534-5.834-1.862c-1.719-0.322-3.46-0.481-5.224-0.481
	c-2.207,0-4.247,0.329-6.117,0.991c-1.867,0.663-3.269,1.632-4.199,2.902c-0.939,1.271-1.405,2.655-1.405,4.149
	c0,0.811,0.102,1.577,0.307,2.289c0.206,0.718,0.529,1.429,0.967,2.163c0.443,0.729,1.013,1.479,1.708,2.239
	c0.695,0.767,1.593,1.648,2.699,2.645c1.106,1.008,2.702,2.382,4.789,4.13c2.092,1.746,3.646,3.071,4.663,3.97
	c1.021,0.897,1.897,1.719,2.628,2.464c0.729,0.75,1.424,1.571,2.086,2.469c0.663,0.898,1.199,1.774,1.604,2.623
	c0.411,0.849,0.717,1.703,0.919,2.568c0.203,0.871,0.307,1.741,0.307,2.622c0,2.142-0.632,4.162-1.889,6.063
	c-1.254,1.899-3.08,3.39-5.476,4.479c-2.393,1.084-5.272,1.632-8.635,1.632c-1.256,0-2.831-0.109-4.714-0.312
	c-1.883-0.203-3.395-0.417-4.539-0.636C297.938,190.908,296.503,190.541,294.77,190.031z"/>
<path fill="#393A3D" d="M332.269,190.031c-0.064-1.631-0.201-3.071-0.404-4.331c2.684,1.194,5.213,2.021,7.592,2.497
	c2.373,0.477,4.553,0.718,6.525,0.718c2.611,0,4.846-0.378,6.695-1.123c1.852-0.744,3.256-1.851,4.205-3.307
	c0.951-1.462,1.428-2.99,1.428-4.584c0-0.717-0.08-1.401-0.23-2.063c-0.154-0.663-0.398-1.319-0.736-1.988
	c-0.342-0.662-0.723-1.271-1.15-1.829c-0.424-0.559-1.018-1.193-1.785-1.91c-0.762-0.712-1.652-1.511-2.672-2.388
	c-1.02-0.887-2.617-2.229-4.789-4.024c-2.176-1.801-3.967-3.351-5.373-4.659c-1.414-1.304-2.586-2.629-3.516-3.971
	c-0.938-1.341-1.602-2.568-1.992-3.69s-0.588-2.25-0.588-3.406c0-1.977,0.623-3.882,1.865-5.727c1.234-1.856,3.02-3.27,5.352-4.255
	c2.322-0.98,5.268-1.474,8.838-1.474c2.988,0,6.352,0.39,10.086,1.173c0.033,1.495,0.135,2.935,0.311,4.331
	c-2.178-0.92-4.121-1.534-5.838-1.862c-1.717-0.322-3.457-0.481-5.221-0.481c-2.207,0-4.248,0.329-6.115,0.991
	c-1.871,0.663-3.27,1.632-4.203,2.902c-0.936,1.271-1.4,2.655-1.4,4.149c0,0.811,0.102,1.577,0.305,2.289
	c0.203,0.718,0.529,1.429,0.967,2.163c0.441,0.729,1.008,1.479,1.705,2.239c0.699,0.767,1.596,1.648,2.703,2.645
	c1.104,1.008,2.699,2.382,4.787,4.13c2.09,1.746,3.645,3.071,4.664,3.97c1.021,0.897,1.895,1.719,2.629,2.464
	c0.727,0.75,1.422,1.571,2.084,2.469c0.664,0.898,1.201,1.774,1.605,2.623c0.41,0.849,0.715,1.703,0.92,2.568
	c0.203,0.871,0.305,1.741,0.305,2.622c0,2.142-0.631,4.162-1.887,6.063c-1.258,1.899-3.084,3.39-5.482,4.479
	c-2.387,1.084-5.266,1.632-8.631,1.632c-1.256,0-2.83-0.109-4.713-0.312c-1.883-0.203-3.396-0.417-4.537-0.636
	C335.44,190.908,334.005,190.541,332.269,190.031z"/>
<g>
	<path fill="#393A3D" d="M416.751,184.359h-0.211c-3.496,4.665-9.857,7.633-16.85,7.633c-16.848,0-26.6-13.776-26.6-27.021
		c0-12.611,10.49-27.023,27.129-27.023c7.629,0,13.457,3.286,16.32,7.634h0.211v-6.253h11.02v51.284h-11.02V184.359z
		 M401.065,181.605c8.689,0,16.109-7.42,16.109-16.635c0-9.222-7.42-16.642-16.109-16.642c-8.896,0-16.316,7.42-16.316,16.642
		C384.749,174.186,392.169,181.605,401.065,181.605z"/>
	<path fill="#393A3D" d="M481.595,184.359h-0.213c-3.494,4.665-9.854,7.633-16.85,7.633c-16.848,0-26.592-13.776-26.592-27.021
		c0-12.611,10.488-27.023,27.123-27.023c7.631,0,13.461,3.286,16.318,7.634h0.213v-21.515h11.021v66.546h-11.021V184.359z
		 M465.913,181.605c8.689,0,16.107-7.42,16.107-16.635c0-9.222-7.418-16.642-16.107-16.642c-8.904,0-16.318,7.42-16.318,16.642
		C449.595,174.186,457.009,181.605,465.913,181.605z"/>
	<path fill="#393A3D" d="M506.597,158.503c0-13.031,8.689-20.556,18.754-20.556c7.738,0,13.355,3.707,15.371,9.112h0.207
		c2.016-5.405,7.629-9.112,15.369-9.112c10.066,0,18.756,7.524,18.756,20.556v32.109H564.03v-31.999c0-6.149-3.92-9.643-8.477-9.643
		c-5.297,0-9.219,3.175-9.219,11.126v30.516h-11.021v-30.516c0-7.951-3.922-11.126-9.217-11.126c-4.557,0-8.477,3.493-8.477,9.643
		v31.999h-11.023V158.503z"/>
	<path fill="#393A3D" d="M594.755,122.687c3.393,0,6.146,2.755,6.146,6.149c0,3.39-2.754,6.144-6.146,6.144
		c-3.391,0-6.145-2.754-6.145-6.144C588.61,125.441,591.364,122.687,594.755,122.687z M589.243,139.328h11.02v51.284h-11.02V139.328
		z"/>
	<path fill="#393A3D" d="M614.462,139.328h11.02v6.461h0.211c3.074-4.77,8.691-7.842,15.684-7.842
		c10.807,0,19.924,9.008,19.924,21.723v30.942h-11.021v-28.506c0-9.325-4.875-13.136-12.184-13.136
		c-7.102,0-12.613,4.556-12.613,12.928v28.714h-11.02V139.328z"/>
</g>
</svg>
