<?xml version="1.0" encoding="utf-8"?>
<!-- Generator: Adobe Illustrator 16.0.0, SVG Export Plug-In . SVG Version: 6.00 Build 0)  -->
<!DOCTYPE svg PUBLIC "-//W3C//DTD SVG 1.1//EN" "http://www.w3.org/Graphics/SVG/1.1/DTD/svg11.dtd">
<svg version="1.1" id="Layer_1" xmlns="http://www.w3.org/2000/svg" xmlns:xlink="http://www.w3.org/1999/xlink" x="0px" y="0px"
	 width="359.664px" height="119.626px" viewBox="0 0 359.664 119.626" enable-background="new 0 0 359.664 119.626"
	 xml:space="preserve">
<path fill="#F9BB2B" d="M278.849,60.205c-65.775,41.692-165.361-1.829-238.696,22.647C26.387,91.903,12.969,103.879,0,119.626
	c105.885-69.189,284.351,49.018,359.664-93.688C333.857,47.036,306.693,56.536,278.849,60.205z"/>
<path fill="#6EBE44" d="M237.519,43.082C186.628,68.725,114.665,41.308,58.57,55.074c-15.102,8.077-29.76,19.882-43.8,36.928
	c89.324-58.37,239.881,41.352,303.411-79.03C292.568,33.911,265.369,41.308,237.519,43.082z"/>
<path fill="#1B9AD6" d="M29.543,64.377C102.31,16.832,224.953,98.063,276.701,0C199.123,63.424,103.673-25.631,29.543,64.377"/>
</svg>
